<svg width="701" height="701" viewBox="0 0 701 701" fill="none" xmlns="http://www.w3.org/2000/svg">
<rect width="701" height="701" fill="white"/>
<path d="M370.872 458.332C288.297 475.091 262.21 427.681 259.489 401.881C148.125 436.376 112.276 370.486 108.272 333.229C71.6899 267.211 120.219 223.449 149.056 209.821C168.133 159.021 234.391 148.074 265.135 148.95C319.063 110.202 390.758 131.763 419.864 147.386C497.357 140.954 532.19 192.311 539.92 218.794C583.64 245.24 584.051 301.079 578.792 325.692C589.222 356.786 586.481 380.033 575.613 397.206C579.085 424.025 569.855 479.119 505.159 484.942C505.396 491.842 540.583 546.206 550.52 552.411C560.458 558.616 490.001 536.971 474.776 519.119C459.551 501.268 453.305 485.053 452.086 479.177C403.352 483.975 377.637 467.279 370.872 458.332Z" fill="#FFD4D4"/>
<path d="M485.263 262.199C475.928 264.321 454.885 273.973 445.389 295.611C422.747 293.446 372.73 296.982 353.794 328.446C318.909 324.985 251.209 334.825 259.489 401.881M259.489 401.881C262.21 427.681 288.297 475.091 370.872 458.332M259.489 401.881C148.125 436.376 112.276 370.486 108.272 333.229C71.6899 267.211 120.219 223.449 149.056 209.821C168.133 159.021 234.391 148.074 265.135 148.95C319.063 110.202 390.758 131.763 419.864 147.386C497.357 140.954 532.19 192.311 539.92 218.794C583.64 245.24 584.051 301.079 578.792 325.692C589.222 356.786 586.481 380.033 575.613 397.206M370.872 458.332C378.754 457.071 399.087 451.536 417.355 439.476C467.12 445.304 547.861 441.055 575.613 397.206M370.872 458.332C377.637 467.279 403.352 483.975 452.086 479.177C453.305 485.053 459.551 501.268 474.776 519.119C490.001 536.971 560.458 558.616 550.52 552.411C540.583 546.206 505.396 491.842 505.159 484.942C569.855 479.119 579.085 424.025 575.613 397.206" stroke="#FF9E9E" stroke-width="12"/>
<path d="M196.595 214.302C208.712 212.932 234.638 206.751 241.413 192.983M298.878 176.037C304.737 176.385 317.533 178.145 321.849 182.407M321.849 182.407C319.778 193.858 317.657 220.92 325.748 237.564C314.603 244.618 293.55 264.065 298.503 285.413C294.103 290.299 288.463 298.38 285.279 307.262M321.849 182.407C325.227 177.491 332.74 167.293 335.766 165.822M289.181 336.942C281.222 328.318 281.688 317.281 285.279 307.262M285.279 307.262C274.777 307.305 253.971 304.816 254.763 294.517M266.069 360.102C239.078 357.167 184.133 339.888 180.278 294.25M180.278 294.25C185.056 284.679 198.707 266.071 215.085 268.211C223.744 259.247 245.53 243.684 263.407 253.138M180.278 294.25C147.576 298.549 134.846 275.183 132.569 262.963M156.557 338.282C157.504 348.889 165.121 369.753 188.009 368.353M364.868 280.041C361.486 271.319 362.904 248.775 395.635 228.375C397.217 219.932 401.86 208.69 410.847 201.233M469.723 205.219C441.115 188.321 422.395 191.651 410.847 201.233M389.047 178.267C395.138 180.379 408.024 187.93 410.847 201.233M326.271 384.381C329.827 386.609 335.215 388.938 341.807 390.311M471.026 357.97C443.471 393.251 408.754 384.267 394.84 375.365C375.753 391.795 355.992 393.266 341.807 390.311M471.026 357.97C489.1 350.899 523.979 329.143 518.901 298.69M471.026 357.97C484.363 362.477 513.356 375.88 522.64 393.439M333.296 412.298C332.96 408.044 334.192 397.691 341.807 390.311" stroke="#FF9E9E" stroke-width="6"/>
</svg>
